<svg xmlns="http://www.w3.org/2000/svg" viewBox="0 0 596.26 136.341"><path fill="#0c100a" d="M99.044 20.513c3.159 3.235-.953 6.435-.727 6.732 4.231 2.209 27.281 12.5 27.957 15.583.742 3.383-11.424 5.596-13.964 5.435 9.096 26.284-.879 53.613-23.976 68.494-.011 2.683 15.876 5.827 18.956 7.036 1.083.425 4.778 1.319 4.015 2.949-1.161 1.756-2.67 1.446-4.434 1.571-7.476.529-15.055.94-22.551.954.166 1.887 4.569 1.687 4.992 3.503.803 3.45-7.663 2.574-9.392 2.375-3.991-.459-13.623-2.993-17.886-4.107-2.266-.592-6.666-4.596-7.229-4.59-.424.005-4.831 3.884-6.966 4.833-5.726 2.547-19.789 5.041-26.024 5.06-1.858.006-15.061-1.449-15.496-2.099-.856-1.279.225-2.938 1.682-3.799 3.713-2.193 12.819-2.412 17.308-4.197-.087-1.709-2.839-1.127-4.377-2.105-5.771-3.67 7.389-5.366 7.394-6.393.011-2.596-9.065-7.199-11.536-9.465C.232 93.097-4.058 67.969 3.827 47.27c.958-2.515 6.495-11.55 6.503-12.527.029-3.609-6.601-2.763-2.005-8.983 1.324-1.793 17.965-15.206 19.543-15.45 2.788-.431 5.568.408 8.5-.5 3.7-1.146 4.489-5.159 6.967-7.033C46.514.373 54.973-.667 58.627.447c2.768.844 4.012 6.367 5.697 7.364 1.122.664 2.824-.507 4.219-.288 9.368 1.47 10.381 3.624 17.755 7.252 2.693 1.325 11.442 4.401 12.747 5.738ZM61.315 10.257c-.358-.335-2.056-6.561-3.705-7.015-2.177-.598-8.59-.005-10.874.935-3.428 1.411-5.029 6.57-9.7 8.3-4.273 1.583-7.551-.256-11.672 2.328-2.429 1.523-3.366 4.39-5.146 5.854-3.112 2.561-8.243 4.125-10.417 7.585-1.834 2.918 1.092 1.691 1.514 2.013 2.619 1.991 3.702 3.937 7 5 2.107.679 6.501 1.336 6-2 .328.042.677-.054 1 0 3.585.601 9.415 2.57 12.462 1.999 3.186-.597 4.667-5.437 8.97-4.996 2.039.209 5.685 3.305 8.324 3.783 2.077.376 13.933-1.388 16.518-2.01 3.001-.722 6.873-4.215 9.473-4.618 2.098-.325 3.694.867 5.527.645.467-.057 8.575-2.565 8.993-2.782 1.036-.535 1.792-1.737.731-3.021-1.513-1.831-2.261-.99-3-1-.657-.009-1.349-.054-2 0-.656.054-1.421-.117-2 0 .023-1.977-5.237-5.038-6.672-5.828-4.663-2.567-15.586-6.304-20.328-3.172 2.318-3.144-.522-1.554-1-2Zm27 38h-18.5c-1.658 0-4.277-3.833-3.485-4.959.206-.293 4.676-1.677 6.482-3.046 2.905-2.202 6.092-5.203 9.241-7.704.796-.632 2.842-.714.75-2.304-3.912.249-6.979 3.281-10.455 4.546-1.911.695-4.737.053-6.075.925-1.073.699-1.209 3.567-2.09 4.91-1.581 2.412-4.573 3.471-3.938 7.033.573 2.631 25.557 6.606 28.071.6Zm26-10c-2.226-1.215-14.152-7.733-15.304-7.729-3.139.011-7.419 2.59-10.434 3.491-2.155.644-4.446-.065-7.006.991-2.662 1.098-5.618 6.498-8.256 8.247-.867.575-3.877-1.323-2.995 1.995 4.26-.878 8.609 1.013 12.499 1.091 6.115.123 14.123-.873 20.495-1.086.125-.004.831 1.047 2.311.958 2.045-.123 16.177-2.293 16.687-2.97l-1.998-1.988h-1c-.745-.456-1.482-.687-2-1-1.021-.619-1.958-1.431-3-2Zm-62.019 4.994c.278-.207 2.017-4.924 3.999-5.494L45.32 33.262c-.614 2.132 4.646 11.72 6.977 9.989Zm-31.985-4.978c-6.769-3.103-7.276-2.32-10.803 3.678-11.887 20.216-8.283 46.922 8.312 63.301 1.993-4.877.827-11.564 4.045-15.945 1.991-2.711 4.465-1.371 6.43-3.55-6.536-4.043-12.137-13.526-9.195-21.223 1.298-3.397 5.494-5.704 6.21-9.272-1.305-1.237-17.149 11.829-18.828 2.68 2.945-3.519 4.599-11 6.965-14.054s6.924-2.217 6.865-5.616Zm33.004 11.984c1.008 2.834 2.117 1.363 2.001 3.991-5.145.164-9.73 3.279-14.001 5.009-1.048.425-2.93.221-4.523.946-1.44.656-6.822 4.745-7.472 4.049-.376-3.249 2.029-5.932 2.794-8.7.363-1.312.592-3.04-1.285-2.286-1.379.553-9.539 11.093-10.045 12.962-1.288 4.766-.211 4.658 1.531 8.029.95 1.838 1.169 1.794 2 3 .256.371.712.645 1 1 .299.368.684.655 1 1 .395.431.027 1.38 2 3 2.037 1.673 6.453 3.648 9 4 5.042.697 10.021-.854 15-1 .091.198 2.476 2.528 3 3 1.098 6.038-1.913 5.569-5 8v-1c.847-1.033 2.73-2.814 3-4 .192-.843-.123-2.046.005-2.996-2.894.489-9.975-.94-12.028.473-1.014.698-1.45 2.98-.971 3.519.594.669 10.052-4.155 11.993-.996-3.487.716-13.665 2.254-15.494 5.046-.708 1.08-.282 2.139-.506 2.954-1.649 5.995 1.511 7.323 5 11.99l-5-.99c-.205-1.106-1.931-4.386-3-5l.978-6.512c-3.167-.315-3.17 2.265-3.978 3.512-.187.288-1.475.475-1.833 1.679-1.773 5.959 8.899 12.17.833 16.321-.558.287-4.107-.797-2.99 1.485 2.156 4.407 10.596-.395 12.99-2.485-.702 1.374-.873 3.423-2.004 4.491-2.305 2.177-20.71 6.453-25.001 7.515-.851 4.026 6.734.358 9.005-.006-.525 3.012 1.415 2.051 3.346 1.873 7.69-.712 32.348-2.912 25.144-14.852l10.017 7.972-.013-3.987 8.762 6.306c.827.467 1.963.37 2.744.688 1.242.505 12.927 4.883 13.01 2.5-4.039-1.965-9.108-2.096-13.01-4.5-.319-.197-.631-.703-1-1-.359-.288-.651-.689-1-1-2.91-2.591-6.199-7.058-9-10 6.596 2.878 10.166 8.626 17.009 9.992-2.83-4.824 5.356.458 6.757.786 1.521.357 2.826.117 4.234.222 4.137.31 9.299.157 13.51 0 1.206-.045 3.721.752 3.483-.987-4.372-1.621-9.848-1.6-14.005-3.501-2.952-1.35-3.952-3.758-6.058-4.941-2.224-1.249-5.431-.985-6.93-2.571 7.377-.798 7.594.722 14.012-4.488 11.081-8.995 18.217-21.224 19.983-35.507-7.557 3.34-23.396-3.546-28.526 3.965-1.533 2.244 2.192 2.48 3.736 5.329 4.306 7.949.03 10.417-2.725 16.68-.806 1.832-.407 4.076-1.604 6.396-1.825 3.539-7.97 4.351-4.875 7.625-1.796.194-2.049.218-3 2-3.388-2.556-6.576-3.316-9.995-5.505 2.494-1.098 5.538-.09 8.285-.705 1.453-.325 8.06-3.905 6.196-5.804l-11.481 2.004c.394-1.188 3.774-2.486 4.995-2.99 5.735-2.364 9.147-2.197 12.389-9.103 4.22-8.991-1.563-11.076-7.384-16.402l5.976-5.005c-2.498-1.023-7.235 2.377-7.98 2.51-2.715.484-7.928.08-11 0-6.453-.169-10.512.231-16-4 .428-2.129-.238-3.28 1-6 .046-.1 2.062-.449 0-1-.388-.103-1.937-.077-2 0 8.979-6.234 22.551-2.55 32.995-6.01l-5.99-1c-.177-1.464 2.611-1.787 3.579-1.893 6.878-.75 13.627 4.137 15.371-3.648 1.235-5.513-6.851.826-9.696 1.31-6.38 1.086-18.902.501-24.509-3.008-7.486-4.684 3.028-11.139 2.25-11.742-3.177-1.376-9.709 6.106-10 7.99-4.999-1.204-6.774-6.435-9.505-9.995-1.934 6.189 4.218 13.399 10.505 13.995ZM40.31 40.252c-.066-4.63-6.014-2.672-8.99-2.984.44 1.967 8.392 3.486 8.99 2.984m-2.995 2.005c-2.173-1.217-7.523-3.606-9.752-3.812-4.326-.4-5.94 3.782-8.743 5.856-1.052.779-3.15.82-3.365 1.085-.575.707.152 2.902-.158 4.162-.247 1.001-1.742-.423-1.982 4.71-1.066.371-1.014.241-2 1-.566.436-2.311 2.732-2 2.99 1.62.463 2.768-.68 4-.99 5.4-1.359 17.589-6.266 22.772-8.696 1.684-.789 1.114-2.24 1.228-2.304.646-.361 2.796.663 3.007-.505.623-3.453-1.524-2.664-3.007-3.495Zm13.999 10.99c-7.849-8.78-14.898-6.62-16.994 5.006.955 1.005 13.94-6.567 16.994-5.006m52.001 6.01c3.113 2.513 5.291 6.096 8.99 8 .376-4.244-.427-18.075-5.485-19.005-1.225-.225-9.053-.204-9.407.106-.344.301-1.944 7.523-2.095 8.894 4.442-.396 4.997-.417 7.997 2.005-1.249-1.081-12.491.74-15 1-.851.088-2.169-.996-4.009-.554-4.184 1.006-9.403 7.235-14.99 6.561-2.614 2.823 9.397 3.771 10.998 3.993 8.617 1.192 19.922 2.929 28 2 .652-.075 1.346.067 2 0s1.341.077 1.997-.004c.862-4.285-1.519-2.573-1.997-2.996-1.435-1.268-3.855-3.236-4.858-4.629-1.405-1.95-1.923-5.181-2.142-5.371Zm-44.5 14c5.31.742 12.01-.542 17.5 0 .6-3.631-4.447-1.091-7.404-3.091-6.194-4.188 4.544-6.76 7.162-7.667 2.471-.855 1.852-1.404-.272-1.277-5.004.299-21.731 1.739-24.026 6.016-1.971 3.674 4.376 5.646 7.04 6.019m-21.5 17c-.933-2.585-10.864-2.38-12.755-.76-.802.687-4.337 13.136-4.245 14.76.245 4.334 2.089 2.02 4 2-2.237 4.28.872 5.059 3.99 7-.016-2.159-.748-6.336-2.99-7 .054-2.914 1.786-5.476 3-8 .129-.268-.124-.717 0-1 2.825-.416 10.136-3.853 9-7"/><path fill="#0c100a" d="M45.315 67.257c-.213 1.361-.058 3.512 0 5-3.802-1.421-1.167-3.666-1-5zM23.315 73.257c.467-1.753-.261-4.323 2.995-3.995-2.135 3.565 4.758 9.826 3.912 10.923-.254.329-1.72-.109-1.907.072-.417-.86-1.537-.709-2-1-.252-.158-.767-.715-1-1-.298-.364-.862-.733-1-1-.377-.73.015-2.988-1-4M48.315 64.257c-.553.674 1.643 4.033-3 3 .569-3.636 1.676-2.081 3-3"/><path fill="#f7f7f6" d="M409.815 46.257c12.663 2.102 14.356 16.136 5.5 23.982 10.671 3.831 10.294 18.181.394 22.912-.822.393-5.523 2.106-5.894 2.106h-25c-.106 0-1.5-1.394-1.5-1.5v-46c0-.106 1.394-1.5 1.5-1.5 7.01 0 18.72-1.043 25 0m-15.506 20.005c5.328.469 19.741 1.158 15.281-7.776-2.66-5.327-10.628-1.372-15.281-2.234zm0 20c5.656-.329 15.384 1.9 17.372-5.227 2.522-9.041-12.311-6.553-17.372-6.783z"/><path fill="#f7f8f7" d="M146.815 46.257h23c.916 0 6.338 1.829 7.564 2.436 7.941 3.928 6.021 16.103-.047 21.065 10.301 4.966 10.056 19.311-.465 23.551-.811.327-6.686 1.948-7.052 1.948h-23c-.106 0-1.5-1.394-1.5-1.5v-46c0-.273 1.17-.992 1.5-1.5m24.259 18.763c.955-.958 1.454-3.849 1.269-5.213-.83-6.104-11.668-4.398-16.034-4.555v11.01c3.438-.449 12.432 1.097 14.765-1.243Zm-14.765 21.242c5.034-.068 16.965 1.668 17.746-5.64.937-8.769-12.47-6.032-17.746-6.371z"/><path fill="#f5f5f4" d="m546.315 44.257 11.005-.005.999 51.009c-4.811.256-9.811.822-11.022-5.004-16.799 14.867-34.816-4.84-26.532-23.049 4.086-8.982 14.529-12.401 22.946-6.844 1.47.97 1.031 2.971 2.604 2.893zM536.038 67.45c-10.031 2.208-8.113 21.377 4.549 18.61 9.301-2.032 7.489-21.259-4.549-18.61"/><path fill="#f4f4f3" d="m454.315 58.257 11.005-.005c.868.869-.579 20.795-.057 24.557.528 3.808 5.906 11.613-1.413 12.509-7.733.947-7.884-5.012-9.035-5.044-.432-.012-4.079 4.104-7.229 4.753-4.792.988-10.995.809-14.13-3.411-.518-.697-3.141-6.482-3.141-6.859v-25c0-2.222 12-2.222 12 0v24c0 .988 3.78 2.574 5.277 2.342 1.485-.23 6.723-4.657 6.723-5.342zM272.315 95.257h-11v-23.5c0-6.144-13-3.574-13 2v21.5h-11v-37c1.689.278 9.628-.387 10.005-.005.489.494-.788 4.261.49 5.001 4.738-5.504 15.251-8.261 21.04-3.031.661.597 3.465 5.196 3.465 5.536z"/><path fill="#f3f2f1" d="M350.635 84.989c.142.316 1.511-.098 1.755 1.698.275 2.031.532 7.682-1.712 8.427-6.643 2.206-8.36-3.892-10.85-3.875-1.272.008-5.612 3.479-9.1 3.926-17.808 2.282-19.057-19.557-3.687-22.682 4.015-.816 8.325.52 12.264-.715-2.441-11.179-14.072-1.633-17.336-2.587-1.341-.392-4.109-5.566-3.233-6.939 3.373-5.286 21.372-5.637 26.536-1.443 8.25 6.7 2.825 18.544 5.363 24.189Zm-11.316-6.735c-3.137.063-10.601-.891-11.833 2.67-3.64 10.52 15.407 6.798 11.833-2.67"/><path fill="#f5f5f4" d="M223.966 89.911c-9.216 9.887-27.837 6.201-32.148-6.658-5.286-15.767 8.699-29.664 24.487-24.485 13.294 4.361 17.142 20.972 7.661 31.143m-16.934-22.443c-9.191 2.094-6.945 20.991 4.549 18.616 10.109-2.089 9.156-21.738-4.549-18.616"/><path fill="#f4f4f3" d="M595.313 61.273c.613.851-3.526 7.648-4.601 7.902-1.188.28-11.885-6.162-13.389-1.407-1.29 4.079 10.508 5.47 13.685 7.297 9.819 5.648 4.641 18.234-5.434 19.954-6.786 1.158-13.963-.13-19.841-3.739-.507-.805 2.257-7.77 2.595-8.021.742-.55 15.578 7.909 16.981 1.486.562-2.571-8.49-4.309-10.672-5.308-5.206-2.382-8.865-3.958-8.383-10.664.994-13.824 20.141-12.212 29.059-7.498Z"/><path fill="#f3f2f1" d="M283.329 83.258c2.77 1.408 14.04 5.882 15.981 2.983 3.028-4.522-14.141-6.768-16.881-11.596-3.33-5.868.528-14.285 6.856-15.917 4.578-1.181 21.724-1.564 19.837 5.775-2.15 8.363-7.291 1.889-12.348 1.705-4.118-.15-6.648 2.517-2.764 4.853 5.375 3.234 15.757 1.541 17.11 10.961 2.045 14.244-18.247 15.583-27.808 10.739-6.293-3.188-.615-4.757.017-9.503"/><path fill="#f7f7f6" d="M498.315 44.257c2.598.443 9.885-1.341 10.86 1.64l.129 37.871c.885 4.441 7.242-.359 6.083 9.02-.449 3.631-11.044 3.144-14.053.95-.759-.554-3.019-3.409-3.019-3.981z"/><path fill="#f3f2f1" d="M476.315 58.257h11v37h-11z"/><path fill="#f7f8f7" d="M361.315 58.257h10v36h-10z"/><path fill="#f3f2f1" d="M480.052 43.433c11.191-2.313 10.977 15.309-.799 11.381-5.566-1.857-4.992-10.184.799-11.381M371.059 44.516c6.516 6.179-4.771 15.428-9.812 8.317-4.658-6.57 4.97-12.91 9.812-8.317"/><path fill="#0ea06c" d="M20.311 38.273c.059 3.399-4.499 2.562-6.865 5.616S9.427 54.424 6.481 57.943c1.679 9.149 17.524-3.917 18.828-2.68-.716 3.568-4.912 5.875-6.21 9.272-2.942 7.698 2.66 17.18 9.195 21.223-1.966 2.179-4.439.839-6.43 3.55-3.218 4.381-2.052 11.068-4.045 15.945C1.225 88.873-2.379 62.167 9.508 41.951c3.527-5.998 4.033-6.781 10.803-3.678"/><path fill="#0da46c" d="M78.315 114.257c-3.095-3.274 3.05-4.086 4.875-7.625 1.197-2.321.798-4.564 1.604-6.396 2.755-6.263 7.032-8.73 2.725-16.68-1.543-2.849-5.269-3.085-3.736-5.329 5.13-7.511 20.969-.625 28.526-3.965-1.766 14.282-8.902 26.512-19.983 35.507-6.418 5.21-6.635 3.69-14.012 4.488Z"/><path fill="#087d4c" d="M11.315 30.257c2.629-4.259 4.371-2.307 8.061-3.438 2.448-.75 3.989-4.005 5.658-4.434 1.703-.438 3.314.819 4.61.558 4.181-.843 16.548-8.637 20.168-11.69 1.495-1.261 2.316-4.41 4.196-4.867 4.737-1.15 4.8 3.346 4.307 6.87-1.247 1.151-3.123 1.506-3 4l-5.995 5.995c4.598 1.07 6.231-3.159 9.99-3.989l-1.995 5.984c6.038 1.551 8.426-7.929 10.512-8.983 2.415-1.22 1.512 4.926 4.133 5.853 5.193 1.836 4.342-2.865 6.849-2.881 2.303-.015 4.216 7.545 4.509.018l2.996 3.003c-3.937 1.232-1.204 2.165-2.004 3.001-.399.417-3.485-1.006-5.04-.589-1.841.494-3.003 2.848-4.676 3.369-2.664.829-10.755 1.448-13.553.992-3.156-.515-13.435-3.029-16.196-2.757-1.941.191-3.401 2.49-6.083 2.934-3.6.596-8.174-.217-11.981.043-2.85.194-1.043 2.475-1.469 4.008-.323-.054-.672.042-1 0-3.688-.471-6.924-2.877-6 2-3.298-1.063-4.381-3.009-7-5Z"/><path fill="#5a3314" d="M50.315 95.257v1c-4.04 3.181-8.606 4.108-8 9 .702 5.668 3.762 4.398 7 6 2.826 1.398 1.803 3.786 2.006 3.998 1.795 1.875 1.994-1.587 2.184-1.758 1.675-1.5 5.22 1.066 6.81 1.76 2.801 2.942 6.09 7.409 9 10l1 1c.369.297.681.803 1 1v2c-.781-.318-1.918-.221-2.744-.688l-8.762-6.306.013 3.987-10.017-7.972c7.205 11.94-17.454 14.139-25.144 14.852-1.931.179-3.871 1.14-3.346-1.873 4.192-.671 8.113-.975 12-2 1.675-.442 8.91-2.98 9.543-3.956 2.284-3.527-1.415-2.847-1.543-3.044-.37-.573.274-3.82-.01-5-1.204-.086-1.441 1.52-1.99 2-2.394 2.09-10.834 6.891-12.99 2.485-1.117-2.282 2.432-1.198 2.99-1.485.588 2.242 4.984-.851 5.541-2.004.752-1.555.246-4.647-.541-5.996 1.981.253 2.384.071 2-2l5 .99c-3.489-4.667-6.649-5.995-5-11.99 4.719-1.955 8.304-6.646 14-4m7.5 26v1q.974-.5 0-1"/><path fill="#5a3314" d="M65.315 75.257c-.578 2.673 1.348 1.943 2.966 2.482 3.959 1.32 9.854 3.917 8.034-2.482.745-.133 5.482-3.533 7.98-2.51l-5.976 5.005c5.822 5.325 11.605 7.411 7.384 16.402-3.242 6.907-6.654 6.739-12.389 9.103v-3c.334-.206.613-.741 1-1s.649-.739 1-1c3.514-2.612 6.032-2.507 6.088-8.496.061-6.538-2.869-3.035-3.86-3.658-.428-.269-.669-1.992-1.832-2.711-4.127-2.556-9.477-4.277-14.391-4.124l12.392 6.093c2.194 1.173 1.652 3.779 1.593 5.892l-2.98-2.995c-.296 5.54-2.339 10.92-6.01 15-.881.395-3.171 4.385-6 1 7.365-4.342 9.142-5.342 8.99-15-1.523.49-2.232 2.624-2.99 4 .448-4.91.312-7.115-4-9-2.222-.972-9.699-3.366-10-1 6.129 2.542 9.762 2.664 7.524 11.033-1.008 3.77-4.712 5.363-5.524 8.967-1.489.573-3.838 1.838-5 3-1.16-.471-3.49.418-4-2 3.601-2.212 6.68-6.556 10.904-8.595 1.004-1.58 1.579-5.047 1.142-6.774-.303-1.198-1.864-.467-2.046-.631-.524-.472-2.909-2.802-3-3-.189-.41.124-1.398 0-2-4.678-1.94-5.027-.04-6-5 .667.005 1.334.024 1.997.008-.626-2.679.552-4.764 1.003-7.008 5.488 4.231 9.547 3.831 16 4Zm2.5 11v1q.974-.5 0-1"/><path fill="#5a3314" d="M66.315 93.257c-.235 2.575-.487 1.428-1 2 .242-.377.628-1.326 1-2"/><path fill="#673b19" d="M50.315 64.257v1c-1.238 2.72-.572 3.871-1 6-.451 2.245-1.629 4.329-1.003 7.008-.663.016-1.33-.003-1.997-.008.973 4.96 1.322 3.06 6 5 .124.602-.189 1.59 0 2-4.979.146-9.958 1.697-15 1l-2.993-3.013c-.319-1.958 2.435-.535 3.002-.991.911-.733-1.575-2.522-2.009-3.996-.412-1.398-.993-4.575-1-6 4.748 3.493 2.068-3.141 4.99-3.995-.057 5.594-1.18 6.769 4.01 8.995 1.142.49 1.117.985 3 1-.287-1.461-.953-4.795-1-6-.058-1.488-.213-3.639 0-5 4.643 1.033 2.447-2.326 3-3 .063-.077 1.612-.103 2 0"/><path fill="#673b19" d="M52.315 46.257c.291-1.884 6.823-9.366 10-7.99.778.602-9.736 7.057-2.25 11.742 5.607 3.509 18.13 4.093 24.509 3.008 2.845-.484 10.931-6.824 9.696-1.31-1.744 7.785-8.493 2.899-15.371 3.648-.968.105-3.756.428-3.579 1.893l5.99 1c-10.444 3.46-24.016-.224-32.995 6.01-1.324.919-2.431-.636-3 3h-1c.047-.375-.824-1.432-1-2 1.289-2.409 2.028-3.922 4-5.99-.245-.185-5.238.725-6 .99v-1c4.271-1.73 8.856-4.845 14.001-5.009.116-2.628-.993-1.157-2.001-3.991-.296-.833-1.089-3.421-1-4ZM73.315 100.257v3c-1.222.504-4.601 1.802-4.995 2.99l11.481-2.004c1.864 1.899-4.743 5.479-6.196 5.804-2.747.615-5.791-.393-8.285.705 3.419 2.189 6.607 2.949 9.995 5.505 1.489 1.123 4.789 5.423 5.268 5.729 1.662 1.062 8.088.445 7.732 4.271-1.409-.106-2.714.135-4.234-.222-1.401-.329-9.586-5.61-6.757-.786-6.843-1.365-10.413-7.114-17.009-9.992-1.59-.694-5.135-3.26-6.81-1.76-.19.171-.389 3.632-2.184 1.758-.203-.212.82-2.6-2.006-3.998l1-1c1.43.293 3.443-.196 5-.01-.451-1.467-2.672-2.352-4-2.99 1.492-2.02 4.959-.562 7.264-1.029 1.007-.204 1.293-1.71 1.736-1.971 2.829 3.385 5.119-.605 6-1 2.031-.911 5.107-1.832 7-3"/><path fill="#0c9c64" d="M11.315 30.257c-.423-.321-3.348.906-1.514-2.013 2.174-3.459 7.305-5.023 10.417-7.585 1.779-1.465 2.717-4.331 5.146-5.854 4.121-2.584 7.399-.745 11.672-2.328 4.671-1.73 6.272-6.89 9.7-8.3 2.284-.94 8.698-1.533 10.874-.935 1.649.453 3.347 6.68 3.705 7.015-.468 1.669-2.028 2.103-3 3 .493-3.524.43-8.02-4.307-6.87-1.88.456-2.701 3.605-4.196 4.867-3.62 3.053-15.987 10.847-20.168 11.69-1.297.261-2.907-.995-4.61-.558-1.669.429-3.21 3.684-5.658 4.434-3.69 1.13-5.432-.821-8.061 3.438Z"/><path fill="#05643a" d="M91.315 21.257c.469.831 1.382.718 2 1 .797.364 2.046 2.257 3 0 1.061 1.284.305 2.485-.731 3.021-.418.216-8.526 2.725-8.993 2.782-1.833.222-3.429-.97-5.527-.645-2.6.403-6.472 3.896-9.473 4.618-2.585.622-14.441 2.386-16.518 2.01-2.64-.478-6.285-3.574-8.324-3.783-4.304-.44-5.785 4.399-8.97 4.996-3.047.571-8.878-1.398-12.462-1.999.426-1.533-1.381-3.814 1.469-4.008 3.807-.259 8.381.554 11.981-.043 2.682-.444 4.142-2.743 6.083-2.934 2.76-.272 13.04 2.242 16.196 2.757 2.798.457 10.89-.163 13.553-.992 1.673-.52 2.835-2.875 4.676-3.369 1.555-.417 4.641 1.006 5.04.589.8-.837-1.933-1.769 2.004-3.001.806-.252 2.646-.929 3-1 .579-.117 1.344.054 2 0Zm-3.5 2v1q.974-.5 0-1"/><path fill="#0c9c64" d="M62.315 12.257c4.742-3.132 15.665.604 20.328 3.172 1.436.79 6.696 3.852 6.672 5.828-.354.071-2.194.748-3 1l-2.996-3.003c-.293 7.527-2.207-.033-4.509-.018-2.507.016-1.656 4.718-6.849 2.881-2.622-.927-1.718-7.074-4.133-5.853-2.086 1.054-4.474 10.534-10.512 8.983l1.995-5.984c-3.759.83-5.392 5.059-9.99 3.989l5.995-5.995c3.235.378 6.62-4.749 7-5Z"/><path fill="#087d4c" d="m73.315 43.257 9.486-3.017c1.496 6.88 2.344 1.179 3.771.286.921-.576 2.6-.192 3.699-.777 1.661-.885 1.911-3.296 3.041-3.989 2.566-1.574 7.374.054 10.215.782l7.788 3.714c-2.596.336-3.8 2.486-4.799 2.947-1.574.727-3.884-1.287-3.201 2.053-6.372.213-14.38 1.209-20.495 1.086-3.89-.078-8.24-1.969-12.499-1.091-.882-3.318 2.128-1.42 2.995-1.995Zm32.994-3.995h-3.99v1.99h3.99z"/><path fill="#7d4f23" d="M22.315 74.257c-1.742-3.37-2.819-3.262-1.531-8.029.505-1.87 8.666-12.409 10.045-12.962 1.878-.754 1.648.974 1.285 2.286-.766 2.768-3.17 5.451-2.794 8.7.65.696 6.032-3.394 7.472-4.049 1.593-.725 3.475-.521 4.523-.946v1c-2.389.832-4.063 2.53-6 4-.714.542-2.053.099-3.481 1.996-3.598 4.778-2.389 10.093 3.481 12.004.434 1.474 2.92 3.263 2.009 3.996-.566.456-3.32-.967-3.002.991l2.993 3.013c-2.547-.352-6.963-2.327-9-4 .117-.557-.179-1.827 0-2 .187-.181 1.653.257 1.907-.072.846-1.098-6.047-7.358-3.912-10.923-3.256-.328-2.528 2.242-2.995 3.995-.065.244-.798.617-1 1m4.5-7v1q.974-.5 0-1m5 13v1q.973-.5 0-1"/><path fill="#0e915b" d="M88.315 48.257c-2.514 6.006-27.498 2.031-28.071-.6-.635-3.562 2.357-4.621 3.938-7.033.881-1.343 1.017-4.21 2.09-4.91 1.338-.872 4.164-.23 6.075-.925 3.476-1.265 6.543-4.297 10.455-4.546 2.092 1.59.046 1.672-.75 2.304-3.149 2.501-6.336 5.502-9.241 7.704-1.805 1.369-6.276 2.753-6.482 3.046-.792 1.127 1.828 4.959 3.485 4.959z"/><path fill="#0c9c64" d="M58.815 73.257c-2.664-.372-9.012-2.345-7.04-6.019 2.295-4.277 19.021-5.717 24.026-6.016 2.124-.127 2.743.421.272 1.277-2.618.906-13.356 3.478-7.162 7.667 2.958 2 8.004-.54 7.404 3.091-5.49-.542-12.19.742-17.5 0"/><path fill="#0ea06c" d="M103.315 59.257c-3-2.422-3.555-2.401-7.997-2.005.15-1.371 1.751-8.593 2.095-8.894.354-.31 8.182-.331 9.407-.106 5.058.93 5.86 14.761 5.485 19.005-3.699-1.904-5.877-5.487-8.99-8"/><path fill="#0c9c64" d="m114.315 38.257-1 2c-.353-.117-1.502-.064-2 0l-7.788-3.714c-2.841-.728-7.649-2.356-10.215-.782-1.13.693-1.38 3.105-3.041 3.989-1.098.585-2.777.201-3.699.777-1.427.892-2.275 6.594-3.771-.286l-9.486 3.017c2.638-1.749 5.594-7.148 8.256-8.247 2.56-1.056 4.851-.347 7.006-.991 3.015-.901 7.295-3.481 10.434-3.491 1.152-.004 13.078 6.514 15.304 7.729Z"/><path fill="#087d4c" d="M88.315 60.257c-.576 4.431 4.569-.114 6.793 1.204.368.218 5.341 5.492 5.207 6.796-4.952-.84-8.447-.262-13.342-.936l-6.658 2.936c-1.601-.222-13.612-1.17-10.998-3.993 5.587.674 10.805-5.556 14.99-6.561 1.839-.442 3.157.642 4.009.554Z"/><path fill="#482c15" d="M78.315 114.257c1.5 1.587 4.707 1.323 6.93 2.571 2.106 1.182 3.106 3.591 6.058 4.941 4.156 1.9 9.633 1.88 14.005 3.501.238 1.739-2.277.942-3.483.987-4.211.158-9.372.31-13.51 0 .356-3.826-6.071-3.209-7.732-4.271-.479-.306-3.778-4.605-5.268-5.729.951-1.782 1.204-1.806 3-2"/><path fill="#0e915b" d="M103.315 59.257c.219.189.737 3.42 2.142 5.371 1.003 1.393 3.424 3.361 4.858 4.629v3c-.654.067-1.348-.075-2 0 .746-2.845-5.62-3.596-8-4 .133-1.304-4.839-6.578-5.207-6.796-2.224-1.317-7.369 3.228-6.793-1.204 2.509-.26 13.751-2.081 15-1"/><path fill="#0c9c64" d="M37.315 42.257c-4.091 2.888-16.871 2.071-20.024 4.473-1.566 1.193-.925 3.864-.976 5.527-.898.59 1.634.388-3 2-.031.664.021 1.335 0 2l-2-1c.986-.759.934-.629 2-1 .24-5.133 1.736-3.709 1.982-4.71.31-1.259-.417-3.454.158-4.162.215-.265 2.313-.306 3.365-1.085 2.803-2.074 4.416-6.256 8.743-5.856 2.229.206 7.579 2.595 9.752 3.812Z"/><path fill="#0e915b" d="M37.315 90.257c-3.742-.94-7.729 4.098-9 7-.124.283.129.732 0 1-5.126-.978-3.143 5.91-8 6-.092-1.624 3.443-14.073 4.245-14.76 1.891-1.62 11.822-1.824 12.755.76"/><path fill="#05643a" d="M100.315 68.257c2.38.404 8.746 1.155 8 4-8.078.929-19.383-.808-28-2l6.658-2.936c4.895.674 8.389.096 13.342.936"/><path fill="#087d4c" d="M37.315 42.257c1.483.831 3.63.042 3.007 3.495-.211 1.169-2.361.144-3.007.505-.666.011-1.334-.016-2 0 2.402-2.83-1.566-3.341-1 0-1.882.427-16.938 5.302-18 6 .051-1.663-.59-4.334.976-5.527 3.153-2.402 15.932-1.585 20.024-4.473"/><path fill="#0c9c64" d="M51.314 53.247c-3.054-1.562-16.039 6.011-16.994 5.006 2.095-11.625 9.145-13.785 16.994-5.006"/><path fill="#93633d" d="M41.315 122.257c-1.689 3.143-5.57 4.767-9.002 5.012l1.002 1.988c-3.887 1.025-7.808 1.329-12 2-2.271.364-9.856 4.032-9.005.006 4.291-1.062 22.695-5.338 25.001-7.515 1.131-1.068 1.302-3.117 2.004-4.491.549-.48.786-2.086 1.99-2 .284 1.18-.36 4.427.01 5"/><path fill="#05643a" d="M34.315 46.257c.284-.064.665.008 1 0 .666-.016 1.334.011 2 0-.114.064.456 1.514-1.228 2.304-5.183 2.43-17.372 7.337-22.772 8.696v-1c.021-.665-.031-1.336 0-2 4.634-1.612 2.102-1.41 3-2 1.062-.698 16.118-5.573 18-6M113.315 40.257c1.17.387 4.196 4.723 4 0 .518.313 1.255.544 2 1 .199.122.194.721.494.984l.506-.984 1.998 1.988c-.51.677-14.642 2.847-16.687 2.97-1.48.089-2.186-.962-2.311-.958-.683-3.339 1.626-1.326 3.201-2.053.999-.461 2.204-2.611 4.799-2.947.498-.064 1.647-.117 2 0"/><path fill="#7d4f23" d="M55.315 88.257c.183.164 1.743-.567 2.046.631.437 1.727-.138 5.194-1.142 6.774-4.224 2.039-7.303 6.383-10.904 8.595-.526.323-1.502.338-2 1h-1c-.606-4.892 3.96-5.819 8-9 3.087-2.431 6.098-1.962 5-8"/><path fill="#0c9c64" d="M52.296 43.251c-2.331 1.731-7.591-7.856-6.977-9.989l10.975 4.495c-1.981.57-3.721 5.287-3.999 5.494Z"/><path fill="#7d4f23" d="M52.315 46.257c-.089.579.704 3.167 1 4-6.287-.597-12.439-7.806-10.505-13.995 2.731 3.56 4.506 8.791 9.505 9.995"/><path fill="#93633d" d="M30.315 104.257c.206 6.592 2.273 5.04 4 8 .787 1.349 1.293 4.441.541 5.996-.557 1.153-4.953 4.245-5.541 2.004 8.066-4.151-2.606-10.361-.833-16.321.358-1.204 1.646-1.391 1.833-1.679.014.666-.021 1.334 0 2M52.315 91.257h1c-.27 1.186-2.153 2.967-3 4-5.696-2.646-9.281 2.045-14 4 .224-.815-.202-1.874.506-2.954 1.829-2.791 12.007-4.33 15.494-5.046"/><path fill="#7d4f23" d="M76.315 75.257c1.821 6.4-4.074 3.802-8.034 2.482-1.618-.539-3.544.19-2.966-2.482 3.072.08 8.285.484 11 0"/><path fill="#0e915b" d="M52.315 91.257c-1.941-3.158-11.399 1.665-11.993.996-.479-.539-.043-2.821.971-3.519 2.052-1.413 9.134.016 12.028-.473-.128.95.186 2.153-.005 2.996z"/><path fill="#482c15" d="M30.315 104.257h1.359c.969 1.04.609 2.716 1.641 1 1.069.614 2.795 3.894 3 5 .384 2.071-.019 2.253-2 2-1.727-2.96-3.794-1.408-4-8"/><path fill="#05643a" d="M37.315 90.257c1.136 3.147-6.175 6.584-9 7 1.271-2.902 5.258-7.94 9-7M28.315 98.257c-1.214 2.524-2.946 5.086-3 8-.245-.072-.666-.004-1 0-1.911.02-3.755 2.334-4-2 4.857-.09 2.874-6.978 8-6"/><path fill="#482c15" d="M71.315 127.257c3.902 2.404 8.971 2.535 13.01 4.5-.083 2.383-11.768-1.995-13.01-2.5z"/><path fill="#2d2d2d" d="M61.315 10.257c.478.446 3.318-1.144 1 2-.38.251-3.765 5.378-7 5-.123-2.494 1.753-2.849 3-4 .972-.897 2.532-1.331 3-3"/><path fill="#087d4c" d="M25.315 106.257c2.242.663 2.974 4.841 2.99 7-3.118-1.94-6.226-2.72-3.99-7 .334-.004.755-.072 1 0"/><path fill="#0e915b" d="M40.31 40.252c-.598.502-8.55-1.018-8.99-2.984 2.976.312 8.924-1.646 8.99 2.984"/><path fill="#05643a" d="M24.315 33.257c.501 3.336-3.893 2.679-6 2-.924-4.877 2.312-2.471 6-2"/><path fill="#673b19" d="M33.315 105.257c-1.032 1.716-.672.04-1.641-1.001h-1.359c-.021-.665.014-1.334 0-1.999.808-1.247.811-3.827 3.978-3.512z"/><path fill="#087d4c" d="M117.315 40.257c.196 4.723-2.83.387-4 0l1-2c1.042.569 1.979 1.381 3 2M13.315 56.257v1c-1.232.31-2.38 1.453-4 .99-.312-.258 1.433-2.554 2-2.99zM96.315 22.257c-.954 2.257-2.203.364-3 0v-1c.739.01 1.487-.831 3 1"/><path fill="#673b19" d="M25.315 78.257c-.288-.355-.744-.629-1-1 .138.267.702.636 1 1M26.315 79.257c-.316-.345-.701-.632-1-1 .233.285.748.842 1 1M24.315 77.257c-.831-1.206-1.05-1.162-2-3 .202-.383.935-.756 1-1 1.015 1.012.623 3.27 1 4M28.315 80.257c-.179.173.117 1.443 0 2-1.973-1.62-1.605-2.569-2-3 .463.291 1.583.14 2 1"/><path fill="#05643a" d="M110.315 69.257c.478.423 2.859-1.29 1.997 2.996-.656.081-1.344-.063-1.997.004z"/><path fill="#0c9c64" d="M93.315 21.257v1c-.618-.282-1.531-.169-2-1 .651-.054 1.343-.009 2 0"/><path fill="#087d4c" d="M119.315 41.257h1l-.506.984c-.3-.263-.295-.862-.494-.984"/><path fill="#5a3314" d="M50.315 65.257v-1c2.062.551.046.9 0 1"/><path fill="#482c15" d="m70.315 126.257-1-1c.349.311.641.712 1 1"/><path fill="#0c100a" d="M41.315 122.257c.127.197 3.827-.483 1.543 3.044-.632.976-7.868 3.515-9.543 3.956l-1.002-1.988c3.432-.245 7.313-1.869 9.002-5.012"/><path fill="#93633d" d="m50.315 110.257-1 1c-3.238-1.602-6.298-.332-7-6h1c.957 2.104 4.876 4.565 7 5"/><path fill="#0c100a" d="M57.815 121.257q.974.5 0 1zM66.315 103.257c3.671-4.08 5.714-9.46 6.01-15l2.98 2.995c.059-2.113.602-4.719-1.593-5.892L61.32 79.267c4.915-.153 10.264 1.568 14.391 4.124 1.162.72 1.404 2.442 1.832 2.711.991.623 3.921-2.88 3.86 3.658-.056 5.988-2.574 5.884-6.088 8.496l-1 1c-.387.259-.666.794-1 1-1.893 1.168-4.969 2.089-7 3Z"/><path fill="#0c100a" d="M62.315 84.257c2.005 5.157.928 9.161-.99 14 .159.193 3.622-2.59 3.99-3-4.462 6.95-3.734 5.202-11 8 .812-3.604 4.516-5.197 5.524-8.967 2.238-8.369-1.395-8.492-7.524-11.033.301-2.366 7.778.028 10 1"/><path fill="#93633d" d="M66.315 93.257c-.372.674-.758 1.623-1 2 .513-.572.765.575 1-2 .758-1.376 1.467-3.51 2.99-4 .152 9.658-1.625 10.657-8.99 15-.442.261-.729 1.766-1.736 1.971-2.305.468-5.772-.991-7.264 1.029-.656-.315-1.467-.784-2-1 1.162-1.162 3.511-2.427 5-3 7.266-2.798 6.538-1.05 11-8-.368.41-3.832 3.192-3.99 3 1.918-4.838 2.995-8.843.99-14 4.312 1.885 4.448 4.09 4 9"/><path fill="#673b19" d="m74.315 99.257 1-1c-.351.261-.614.742-1 1"/><path fill="#93633d" d="M67.815 86.257q.974.5 0 1z"/><path fill="#0c100a" d="M41.315 60.257c.762-.265 5.755-1.175 6-.99-1.971 2.068-2.71 3.581-4 5.99-.113.212-1.43.449-1.802 1.663-1.028 3.355.372 7.274 1.802 10.337-5.19-2.226-4.067-3.401-4.01-8.995-2.922.854-.242 7.488-4.99 3.995-.015-2.823 1.071-5.222 1-8 1.937-1.47 3.611-3.168 6-4"/><path fill="#93633d" d="M44.315 67.257c-.167 1.334-2.802 3.579 1 5 .047 1.205.713 4.539 1 6-1.883-.015-1.858-.51-3-1-1.43-3.063-2.829-6.982-1.802-10.337.372-1.214 1.689-1.451 1.802-1.663.176.568 1.047 1.625 1 2"/><path fill="#482c15" d="M45.315 104.257c.51 2.418 2.84 1.529 4 2 .533.216 1.344.685 2 1 1.328.638 3.549 1.523 4 2.99-1.557-.186-3.57.303-5 .01-2.124-.435-6.043-2.896-7-5 .498-.662 1.474-.677 2-1"/><path fill="#087d4c" d="M87.815 23.257q.974.5 0 1z"/><path fill="#05643a" d="M102.32 39.262h3.99v1.99h-3.99z"/><path fill="#5a3314" d="M35.315 64.257c.071 2.778-1.015 5.177-1 8 .007 1.425.588 4.602 1 6-5.87-1.911-7.08-7.226-3.481-12.004 1.429-1.897 2.768-1.455 3.481-1.996"/><path fill="#0c100a" d="M26.815 67.257q.974.5 0 1zM31.815 80.257q.973.5 0 1z"/><path fill="#0c9c64" d="M34.315 46.257c-.566-3.341 3.402-2.83 1 0-.335.008-.716-.064-1 0"/></svg>